<svg width="567" height="87" viewBox="0 0 567 87" fill="none" xmlns="http://www.w3.org/2000/svg">
<g clip-path="url(#clip0_22_419)" filter="url(#filter0_d_22_419)">
<path d="M14.1221 43.1359C18.2252 40.9626 21.5812 37.7478 45.8834 33.6457C54.1972 32.2808 62.4924 30.8031 70.81 29.4946C132.916 21.2001 138.32 21.5084 184.141 18.0041C208.685 16.5226 233.292 16.4136 257.869 16C275.199 15.9586 292.533 16.5866 309.859 16.94C403.162 21.0948 370.695 18.8877 435.704 24.7044C463.715 28.5283 491.659 32.9238 519.648 36.9394C523.822 37.8456 528.059 38.5074 532.177 39.6542C536.733 40.9401 536.904 40.8874 537.554 41.489C540.524 43.6623 538.662 49.0617 534.314 48.069C521.681 44.5083 522.317 44.8467 468.137 36.9169C466.554 38.6014 465.428 38.1878 461.292 38.0862C456.39 37.9659 451.488 37.887 446.589 37.6651C426.702 36.2326 406.867 34.048 386.991 32.4199C380.149 31.9311 373.315 31.2468 366.473 30.6527C357.847 30.2166 349.217 29.7917 340.587 29.3743C295.885 28.5622 308.826 28.1974 253.379 28.8028C244.675 29.175 252.796 28.7351 206.656 31.3972C170.75 34.7361 131.984 41.9026 96.8626 48.7383C81.6733 51.7125 53.5022 57.4615 38.77 62.5676C37.354 62.9624 35.6927 62.4661 34.864 61.2215C33.6858 59.8228 33.8754 57.5743 35.1539 56.2846C36.3617 55.1115 38.1791 54.9912 39.6805 54.3745C46.3293 52.1749 56.1038 49.8287 63.3435 48.148L53.6212 49.3813C45.0658 50.5582 36.4212 50.8552 27.8509 51.9193C23.8371 52.2802 18.3999 52.5998 15.0885 50.2686C14.2485 49.6896 13.2822 49.2346 12.7805 48.2871C11.7548 46.5613 12.3605 44.1286 14.1147 43.1434L14.1221 43.1359ZM195.075 24.9375C181.086 25.4639 137.845 29.0171 121.994 30.555C104.916 32.6267 87.8427 34.7022 70.7951 37.0184C61.7826 38.8119 43.2447 41.2334 32.9908 43.839C37.4023 43.4066 41.825 43.0983 46.2402 42.6885C95.8406 36.7101 145.396 30.273 195.075 24.9375Z" fill="#8658C1" fill-opacity="0.85"/>
</g>
<defs>
<filter id="filter0_d_22_419" x="0" y="0" width="567" height="87" filterUnits="userSpaceOnUse" color-interpolation-filters="sRGB">
<feFlood flood-opacity="0" result="BackgroundImageFix"/>
<feColorMatrix in="SourceAlpha" type="matrix" values="0 0 0 0 0 0 0 0 0 0 0 0 0 0 0 0 0 0 127 0" result="hardAlpha"/>
<feOffset dx="8" dy="4"/>
<feGaussianBlur stdDeviation="10"/>
<feComposite in2="hardAlpha" operator="out"/>
<feColorMatrix type="matrix" values="0 0 0 0 0 0 0 0 0 0 0 0 0 0 0 0 0 0 0.77 0"/>
<feBlend mode="normal" in2="BackgroundImageFix" result="effect1_dropShadow_22_419"/>
<feBlend mode="normal" in="SourceGraphic" in2="effect1_dropShadow_22_419" result="shape"/>
</filter>
<clipPath id="clip0_22_419">
<rect width="527" height="47" fill="white" transform="matrix(-1 0 0 1 539 16)"/>
</clipPath>
</defs>
</svg>
