<svg width="74" height="74" viewBox="0 0 74 74" fill="none" xmlns="http://www.w3.org/2000/svg">
<g id="planet-saturn-svgrepo-com 1" clip-path="url(#clip0_22_415)">
<g id="Group">
<g id="Group_2">
<path id="Vector" d="M73.0432 15.7333C71.5863 13.264 68.8896 12.0119 65.0286 12.0119C60.9187 12.0119 55.1542 13.4581 48.3346 16.1965C44.9281 14.3387 41.0488 13.3021 36.9998 13.3021C23.9728 13.3021 13.3685 23.8679 13.3033 36.8797C11.2579 38.5496 9.40166 40.1971 7.78551 41.7815C6.9001 42.6498 6.07771 43.508 5.34132 44.332C4.92117 44.8022 4.96178 45.5238 5.43209 45.944C5.90225 46.3643 6.62405 46.3234 7.04406 45.8532C7.74691 45.0664 8.53418 44.2452 9.38389 43.4118C10.6062 42.2138 11.9712 40.9763 13.4577 39.7181C13.4695 39.8225 13.4838 39.9265 13.4973 40.0306C13.5062 40.1003 13.5142 40.1702 13.5237 40.2397C13.547 40.4099 13.5726 40.5797 13.5995 40.7492C13.6003 40.755 13.6012 40.7608 13.6021 40.7666C13.7875 41.9273 14.0582 43.0717 14.4149 44.1921C14.0398 44.5269 13.6788 44.8558 13.3364 45.1745C11.8776 46.5327 7.06371 51.1935 6.37184 54.1458C6.23135 54.7447 6.59066 55.3471 7.18425 55.5081C7.65456 55.6359 8.25567 55.7005 8.97096 55.7005C11.6471 55.7005 15.7446 54.7538 20.5113 53.034C20.5156 53.0324 20.5196 53.031 20.5238 53.0294C26.6678 50.8115 33.6448 47.4389 40.7023 43.2746C43.8623 41.4102 46.9245 39.4483 49.804 37.4433C50.3214 37.083 50.4488 36.3716 50.0886 35.8542C49.7281 35.3369 49.017 35.209 48.4995 35.5696C45.6668 37.5419 42.6529 39.4727 39.542 41.3081C32.8806 45.2387 26.307 48.4443 20.4714 50.6148C17.9399 47.5444 16.3252 43.846 15.7859 39.9304C15.7832 39.9106 15.7809 39.8908 15.7783 39.8709C15.6693 39.0508 15.6054 38.2245 15.5902 37.3972C15.5902 37.3943 15.5895 37.3914 15.5895 37.3886C15.5872 37.2591 15.585 37.1296 15.585 36.9996C15.585 25.1915 25.1917 15.5847 36.9999 15.5847C43.001 15.5847 48.5882 18.1049 52.5549 22.2873C54.4254 24.2594 55.9122 26.5828 56.9137 29.1102C55.3996 30.4092 53.7333 31.7415 51.9495 33.0785C51.445 33.4566 51.3426 34.1721 51.7207 34.6766C52.0986 35.1811 52.8145 35.2839 53.3187 34.9054C55.3856 33.3563 57.3015 31.8109 59.0135 30.3121C59.023 30.3037 59.0327 30.2956 59.0419 30.287C59.6146 29.7852 60.1602 29.2932 60.6633 28.8245C64.5571 25.1996 67.1607 21.8459 67.628 19.8535C67.7685 19.2545 67.4092 18.6519 66.8154 18.491C66.345 18.3632 65.7439 18.2986 65.0286 18.2986C62.4882 18.2986 58.6661 19.1518 54.2089 20.7091C54.1745 20.6727 54.1393 20.6376 54.1046 20.6013C54.0796 20.5754 54.0546 20.5496 54.0294 20.5238C53.0223 19.4823 51.9281 18.5372 50.7543 17.6995C56.6103 15.4671 61.5153 14.2941 65.0285 14.2941C68.0243 14.2941 70.0595 15.1682 71.0767 16.8928C73.1386 20.3881 69.8386 24.8083 67.6852 27.416C65.1052 30.5402 61.9752 33.1567 58.8338 35.6928C54.2198 39.4179 48.6535 43.2321 42.7371 46.7232C36.7964 50.2285 30.7676 53.259 25.3024 55.4872C18.5355 58.2463 12.8879 59.7046 8.97081 59.7046C5.97495 59.7046 3.94008 58.8305 2.92287 57.1065C1.89842 55.3698 2.12736 53.1469 3.60376 50.4996C3.85019 50.0578 4.14431 49.5848 4.4776 49.0941C4.83185 48.5726 4.69628 47.8625 4.17466 47.5083C3.65348 47.154 2.94339 47.2896 2.58885 47.8112C2.21813 48.3571 1.88845 48.8874 1.6095 49.3875C-0.289936 52.7941 -0.509914 55.7814 0.956364 58.2667C2.41339 60.7358 5.10993 61.9879 8.97081 61.9879C13.0787 61.9879 18.839 60.5432 25.6543 57.8076C26.3428 58.1837 27.0526 58.529 27.7727 58.8337C30.6655 60.058 33.8464 60.6973 37.0203 60.6973C37.2833 60.6973 37.5465 60.6928 37.8094 60.684C38.4396 60.6627 38.9333 60.1349 38.9121 59.5046C38.8908 58.8746 38.363 58.3804 37.7327 58.4019C34.6287 58.5072 31.4919 57.9283 28.6626 56.7307C28.5915 56.7005 28.5212 56.6678 28.4503 56.6369C33.3863 54.4896 38.6779 51.7694 43.8976 48.6894C49.0999 45.6198 54.0388 42.3008 58.3201 39.0036C58.0425 41.9616 57.1539 44.8406 55.7083 47.4279C53.9967 50.4917 51.5306 53.1164 48.5764 55.0184C46.8911 56.1034 45.066 56.9443 43.1519 57.5175C42.5479 57.6984 42.2048 58.3346 42.3858 58.9386C42.534 59.4335 42.9876 59.753 43.479 59.753C43.5874 59.753 43.6978 59.7374 43.8069 59.7047C45.9264 59.0701 47.9471 58.1393 49.8125 56.9381C53.08 54.8343 55.808 51.9308 57.7015 48.5417C59.6423 45.0681 60.6756 41.1211 60.696 37.12C62.7408 35.4507 64.5969 33.803 66.2142 32.2179C69.0451 29.4426 71.1228 26.8832 72.39 24.6111C74.2896 21.2056 74.5095 18.2184 73.0432 15.7333ZM18.1957 51.4232C14.4632 52.6756 11.3049 53.3753 9.16665 53.4159C9.97415 52.0443 11.6945 49.8229 14.8923 46.8462C15.0193 46.7279 15.1494 46.608 15.2818 46.4867C16.0454 48.2351 17.0214 49.8935 18.1957 51.4232ZM64.833 20.5848C64.0252 21.9566 62.305 24.1777 59.1073 27.1544C58.9811 27.2719 58.852 27.391 58.7205 27.5114C57.9429 25.7328 56.9598 24.0799 55.804 22.5775C59.5367 21.3253 62.6948 20.6257 64.833 20.5848Z" fill="#D9D9D9"/>
</g>
</g>
</g>
<defs>
<clipPath id="clip0_22_415">
<rect width="74" height="74" fill="white"/>
</clipPath>
</defs>
</svg>
