<svg width="50" height="63" viewBox="0 0 50 63" fill="none" xmlns="http://www.w3.org/2000/svg">
<path id="Vector" fill-rule="evenodd" clip-rule="evenodd" d="M25 59.375L27.2125 61.5812C26.9222 61.8727 26.5771 62.104 26.1972 62.2618C25.8172 62.4197 25.4099 62.5009 24.9984 62.5009C24.587 62.5009 24.1797 62.4197 23.7997 62.2618C23.4198 62.104 23.0747 61.8727 22.7844 61.5812L22.7656 61.5594L22.7125 61.5062L22.5188 61.3094C21.4172 60.1746 20.3337 59.0224 19.2688 57.8531C16.595 54.9234 14.0348 51.8919 11.5938 48.7656C8.80625 45.1719 5.95625 41.1094 3.79062 37.0969C1.67187 33.1625 0 28.9 0 25C0 10.8156 11.225 0 25 0C38.775 0 50 10.8156 50 25C50 28.9 48.3281 33.1625 46.2094 37.0938C44.0438 41.1125 41.1969 45.1719 38.4063 48.7656C34.9918 53.1395 31.3449 57.3268 27.4812 61.3094L27.2875 61.5062L27.2344 61.5594L27.2156 61.5781L25 59.375ZM25 34.375C27.4864 34.375 29.871 33.3873 31.6291 31.6291C33.3873 29.871 34.375 27.4864 34.375 25C34.375 22.5136 33.3873 20.129 31.6291 18.3709C29.871 16.6127 27.4864 15.625 25 15.625C22.5136 15.625 20.129 16.6127 18.3709 18.3709C16.6127 20.129 15.625 22.5136 15.625 25C15.625 27.4864 16.6127 29.871 18.3709 31.6291C20.129 33.3873 22.5136 34.375 25 34.375Z" fill="#8658C1"/>
</svg>
