<svg width="110" height="99" viewBox="0 0 110 99" fill="none" xmlns="http://www.w3.org/2000/svg">
<g id="rocket-svgrepo-com 1" clip-path="url(#clip0_22_428)">
<g id="Rocket_1_">
<path id="Vector" d="M62.2579 7.60011C59.8793 5.22147 57.3188 4.0172 54.6492 4.02139C43.9354 4.04138 35.5103 23.8375 35.4677 49.0989C35.4662 50.0169 35.5346 50.9256 35.6311 51.8303C35.4437 51.9081 35.242 52.0117 35.0257 52.1464C30.5304 54.9386 20.8224 68.6198 31.0191 85.6254C31.2801 86.0616 31.7855 86.2867 32.2843 86.19C32.527 86.1441 32.7421 86.0256 32.9089 85.8589C33.0849 85.6829 33.2067 85.4528 33.2475 85.195C34.5165 77.2223 36.8753 72.1671 40.6076 69.4274C40.7891 70.0556 40.9574 70.6772 41.1007 71.2887C41.2291 71.8359 41.717 72.222 42.2782 72.2211L44.954 72.2168L44.9447 77.2244C44.9438 77.5455 45.0713 77.8532 45.2982 78.0801C45.5251 78.3069 45.8329 78.4345 46.154 78.4337L62.9151 78.4061C63.2479 78.4053 63.5489 78.2711 63.7674 78.0525C63.9859 77.834 64.1203 77.5329 64.1211 77.2001L64.1292 72.1846L66.8124 72.1803C67.1418 72.1793 67.4447 72.0468 67.6648 71.8266C67.8191 71.6724 67.9325 71.4755 67.9859 71.252C68.1212 70.6813 68.2761 70.1035 68.445 69.5185C72.253 72.2146 74.637 77.2917 75.8956 85.3618C75.9741 85.8639 76.3585 86.2633 76.8564 86.361C77.2576 86.4402 77.663 86.3101 77.9432 86.0299C78.0116 85.9615 78.0724 85.8839 78.1241 85.7989C88.3525 68.8 78.7105 55.1347 74.2368 52.339C73.9637 52.1686 73.7219 52.0611 73.4943 51.979C73.6081 51.0074 73.6889 50.0305 73.6905 49.0438C73.7214 30.8432 69.2328 14.575 62.2579 7.60011ZM39.8029 67.0336C35.7687 69.6632 33.0841 74.3012 31.5045 81.417C27.7089 73.3446 28.8006 66.6465 30.5362 62.2705C31.8381 58.9903 33.6462 56.6284 34.9806 55.294C35.3385 54.9362 35.6611 54.6535 35.9314 54.445L39.8029 67.0336ZM61.7074 75.9925L47.3624 76.0159L47.3699 72.2136L59.7617 72.1921L61.7133 72.1886L61.7074 75.9925ZM78.6612 62.3781C80.4001 66.7592 81.4852 73.4721 77.6488 81.5838C76.0916 74.4821 73.4253 69.8559 69.3996 67.2362L73.3143 54.6276C74.5854 55.6018 77.0258 58.2589 78.6612 62.3781ZM67.9416 63.3481C67.1628 65.5732 66.4196 67.6908 65.8691 69.7658L43.2206 69.8041C42.7843 68.1426 42.2114 66.4371 41.6083 64.6869L38.5284 54.6709C38.1307 52.8215 37.8801 50.9625 37.883 49.1023C37.9214 25.9917 45.5993 6.4558 54.6525 6.43667C56.6575 6.43334 58.6416 7.39993 60.5498 9.30818C66.9934 15.7517 71.3036 31.7198 71.2753 49.0405C71.2669 53.8644 69.5763 58.6859 67.9416 63.3481Z" fill="#D9D9D9" fill-opacity="0.92"/>
<path id="Vector_2" d="M47.4652 29.147C47.4602 31.0885 48.2124 32.9134 49.5835 34.2845C50.9555 35.6564 52.7804 36.4087 54.7219 36.4037C56.7235 36.3987 58.5409 35.5805 59.8586 34.2628C61.1763 32.9451 61.9945 31.1277 61.9987 29.127C62.0037 27.1853 61.2506 25.3614 59.8786 23.9894C58.5075 22.6183 56.6836 21.8652 54.7419 21.8702C50.7404 21.8785 47.4751 25.1437 47.4652 29.147ZM59.5834 29.1202C59.5767 31.799 57.394 33.9817 54.7153 33.9884C53.4217 33.9908 52.2056 33.4905 51.2916 32.5764C50.3783 31.6632 49.878 30.4471 49.8804 29.1535C49.8838 27.8142 50.4317 26.599 51.3132 25.7175C52.1949 24.8359 53.4091 24.2888 54.7486 24.2854C56.0421 24.283 57.2573 24.7842 58.1705 25.6974C59.0846 26.6115 59.5858 27.8267 59.5834 29.1202Z" fill="#8658C1" fill-opacity="0.85"/>
<path id="Vector_3" d="M54.3265 80.8616C53.6594 80.8599 53.1189 81.4003 53.1173 82.0676L53.089 99.1114C53.088 99.7778 53.6268 100.32 54.2949 100.321C54.6293 100.322 54.9313 100.186 55.1506 99.9672C55.3683 99.7495 55.5034 99.4475 55.5042 99.1148L55.5326 82.0709C55.5334 81.4045 54.9946 80.8624 54.3265 80.8616Z" fill="#8658C1" fill-opacity="0.85"/>
<path id="Vector_4" d="M49.2758 94.1558C49.4935 93.9381 49.6285 93.6362 49.6295 93.3034L49.6478 82.0793C49.6486 81.4129 49.109 80.8716 48.4418 80.87C47.7746 80.8683 47.2333 81.4079 47.2325 82.0759L47.2141 93.3001C47.2132 93.9664 47.7529 94.5078 48.4202 94.5094C48.7545 94.5102 49.0565 94.3751 49.2758 94.1558Z" fill="#8658C1" fill-opacity="0.85"/>
<path id="Vector_5" d="M59.0011 82.0567L58.9829 93.2808C58.982 93.9472 59.5217 94.4885 60.1889 94.4901C60.5233 94.4909 60.8252 94.3559 61.0446 94.1365C61.2622 93.9189 61.3973 93.6169 61.3981 93.2842L61.4166 82.06C61.4174 81.3936 60.8778 80.8523 60.2105 80.8507C59.5434 80.849 59.002 81.3887 59.0011 82.0567Z" fill="#8658C1" fill-opacity="0.85"/>
</g>
</g>
<defs>
<clipPath id="clip0_22_428">
<rect width="77.2979" height="77.2979" fill="white" transform="translate(0 54.6578) rotate(-45)"/>
</clipPath>
</defs>
</svg>
