<svg width="55" height="55" viewBox="0 0 55 55" fill="none" xmlns="http://www.w3.org/2000/svg">
<g id="star-svgrepo-com (2) 1" clip-path="url(#clip0_22_421)">
<path id="Vector" fill-rule="evenodd" clip-rule="evenodd" d="M25.2397 6.34066C26.0769 4.33176 28.9227 4.33176 29.7598 6.34066L34.1692 16.9231C34.5249 17.7771 35.3593 18.3333 36.2844 18.3333H47.8798C50.012 18.3333 51.0796 20.9111 49.572 22.4186L40.1938 31.7969C39.6053 32.3854 39.3823 33.2466 39.6108 34.0468L43.3299 47.0637C43.9578 49.2617 41.5071 51.0508 39.605 49.7828L28.771 42.5599C28.0012 42.0468 26.9984 42.0468 26.2286 42.5601L15.4125 49.7709C13.5044 51.0428 11.0456 49.2479 11.6756 47.0431L15.3887 34.0468C15.6174 33.2466 15.3942 32.3854 14.8057 31.7969L5.47385 22.465C3.94918 20.9403 5.02902 18.3333 7.18525 18.3333H18.7151C19.6402 18.3333 20.4746 17.7771 20.8304 16.9231L25.2397 6.34066Z" fill="#D9D9D9"/>
</g>
<defs>
<clipPath id="clip0_22_421">
<rect width="55" height="55" fill="white"/>
</clipPath>
</defs>
</svg>
